<svg width="50" height="143" viewBox="0 0 50 143" fill="none" xmlns="http://www.w3.org/2000/svg">
<rect x="20.3488" y="36.5304" width="8.92966" height="101.473" fill="white"/>
<ellipse cx="24.8136" cy="37.3422" rx="4.46483" ry="4.87073" fill="white"/>
<ellipse cx="24.8136" cy="138.004" rx="4.46483" ry="4.87073" fill="white"/>
<ellipse cx="43.1745" cy="127.79" rx="4.42424" ry="5.32692" transform="rotate(-120 43.1745 127.79)" fill="white"/>
<rect x="22.7841" y="134.456" width="20.5049" height="8.84883" transform="rotate(-30 22.7841 134.456)" fill="white"/>
<rect x="48.3762" y="106.344" width="8.92966" height="101.473" transform="rotate(180 48.3762 106.344)" fill="white"/>
<ellipse cx="43.9115" cy="105.532" rx="4.46483" ry="4.87073" transform="rotate(180 43.9115 105.532)" fill="white"/>
<ellipse cx="43.9114" cy="4.87073" rx="4.46483" ry="4.87073" transform="rotate(180 43.9114 4.87073)" fill="white"/>
<ellipse cx="6.82796" cy="25.889" rx="4.42941" ry="5.32692" transform="rotate(60 6.82796 25.889)" fill="white"/>
<rect x="45.9408" y="8.41867" width="42.213" height="8.84883" transform="rotate(150 45.9408 8.41867)" fill="white"/>
</svg>
